<svg xmlns="http://www.w3.org/2000/svg" xmlns:xlink="http://www.w3.org/1999/xlink" width="500" zoomAndPan="magnify" viewBox="0 0 375 374.999991" height="500" preserveAspectRatio="xMidYMid meet" version="1.0"><defs><g/></defs><g fill="#ffffff" fill-opacity="1"><g transform="translate(5.253735, 220.851314)"><g><path d="M 14.09375 0 L 5.296875 0 L 5.296875 -42.125 L 29.4375 -42.125 L 29.4375 -34.796875 L 14.09375 -34.796875 L 14.09375 -23.9375 L 28.375 -23.9375 L 28.375 -16.65625 L 14.09375 -16.65625 Z M 14.09375 0 "/></g></g></g><g fill="#ffffff" fill-opacity="1"><g transform="translate(37.630304, 220.851314)"><g><path d="M 4.234375 -40.53125 C 4.234375 -43.394531 5.828125 -44.828125 9.015625 -44.828125 C 12.203125 -44.828125 13.796875 -43.394531 13.796875 -40.53125 C 13.796875 -39.164062 13.394531 -38.101562 12.59375 -37.34375 C 11.800781 -36.59375 10.609375 -36.21875 9.015625 -36.21875 C 5.828125 -36.21875 4.234375 -37.65625 4.234375 -40.53125 Z M 13.390625 0 L 4.609375 0 L 4.609375 -32.203125 L 13.390625 -32.203125 Z M 13.390625 0 "/></g></g></g><g fill="#ffffff" fill-opacity="1"><g transform="translate(55.63329, 220.851314)"><g><path d="M 34.34375 0 L 25.546875 0 L 25.546875 -18.8125 C 25.546875 -21.132812 25.132812 -22.875 24.3125 -24.03125 C 23.488281 -25.195312 22.175781 -25.78125 20.375 -25.78125 C 17.914062 -25.78125 16.132812 -24.957031 15.03125 -23.3125 C 13.9375 -21.675781 13.390625 -18.957031 13.390625 -15.15625 L 13.390625 0 L 4.609375 0 L 4.609375 -32.203125 L 11.328125 -32.203125 L 12.5 -28.09375 L 13 -28.09375 C 13.976562 -29.644531 15.328125 -30.816406 17.046875 -31.609375 C 18.765625 -32.410156 20.71875 -32.8125 22.90625 -32.8125 C 26.644531 -32.8125 29.484375 -31.796875 31.421875 -29.765625 C 33.367188 -27.742188 34.34375 -24.820312 34.34375 -21 Z M 34.34375 0 "/></g></g></g><g fill="#ffffff" fill-opacity="1"><g transform="translate(94.404521, 220.851314)"><g><path d="M 17.953125 -26.5625 C 16.085938 -26.5625 14.625 -25.96875 13.5625 -24.78125 C 12.507812 -23.601562 11.90625 -21.929688 11.75 -19.765625 L 24.078125 -19.765625 C 24.046875 -21.929688 23.484375 -23.601562 22.390625 -24.78125 C 21.296875 -25.96875 19.816406 -26.5625 17.953125 -26.5625 Z M 19.1875 0.578125 C 14 0.578125 9.945312 -0.851562 7.03125 -3.71875 C 4.113281 -6.582031 2.65625 -10.632812 2.65625 -15.875 C 2.65625 -21.269531 4.003906 -25.441406 6.703125 -28.390625 C 9.398438 -31.335938 13.128906 -32.8125 17.890625 -32.8125 C 22.441406 -32.8125 25.984375 -31.515625 28.515625 -28.921875 C 31.054688 -26.328125 32.328125 -22.742188 32.328125 -18.171875 L 32.328125 -13.921875 L 11.546875 -13.921875 C 11.648438 -11.421875 12.390625 -9.46875 13.765625 -8.0625 C 15.148438 -6.664062 17.09375 -5.96875 19.59375 -5.96875 C 21.53125 -5.96875 23.363281 -6.164062 25.09375 -6.5625 C 26.820312 -6.96875 28.628906 -7.613281 30.515625 -8.5 L 30.515625 -1.703125 C 28.972656 -0.929688 27.328125 -0.359375 25.578125 0.015625 C 23.828125 0.390625 21.695312 0.578125 19.1875 0.578125 Z M 19.1875 0.578125 "/></g></g></g><g fill="#ffffff" fill-opacity="1"><g transform="translate(129.258301, 220.851314)"><g/></g></g><g fill="#ffffff" fill-opacity="1"><g transform="translate(144.582442, 220.851314)"><g><path d="M 21.546875 0 L 12.625 0 L 12.625 -34.6875 L 1.1875 -34.6875 L 1.1875 -42.125 L 32.984375 -42.125 L 32.984375 -34.6875 L 21.546875 -34.6875 Z M 21.546875 0 "/></g></g></g><g fill="#ffffff" fill-opacity="1"><g transform="translate(178.744908, 220.851314)"><g><path d="M 22.59375 -32.8125 C 23.78125 -32.8125 24.765625 -32.722656 25.546875 -32.546875 L 24.890625 -24.3125 C 24.179688 -24.507812 23.316406 -24.609375 22.296875 -24.609375 C 19.492188 -24.609375 17.304688 -23.882812 15.734375 -22.4375 C 14.171875 -21 13.390625 -18.984375 13.390625 -16.390625 L 13.390625 0 L 4.609375 0 L 4.609375 -32.203125 L 11.265625 -32.203125 L 12.5625 -26.796875 L 13 -26.796875 C 13.988281 -28.597656 15.332031 -30.050781 17.03125 -31.15625 C 18.738281 -32.257812 20.59375 -32.8125 22.59375 -32.8125 Z M 22.59375 -32.8125 "/></g></g></g><g fill="#ffffff" fill-opacity="1"><g transform="translate(205.533339, 220.851314)"><g><path d="M 25.0625 0 L 23.359375 -4.375 L 23.140625 -4.375 C 21.660156 -2.507812 20.132812 -1.21875 18.5625 -0.5 C 17 0.21875 14.960938 0.578125 12.453125 0.578125 C 9.359375 0.578125 6.921875 -0.300781 5.140625 -2.0625 C 3.367188 -3.832031 2.484375 -6.351562 2.484375 -9.625 C 2.484375 -13.039062 3.675781 -15.5625 6.0625 -17.1875 C 8.457031 -18.8125 12.0625 -19.707031 16.875 -19.875 L 22.46875 -20.046875 L 22.46875 -21.46875 C 22.46875 -24.726562 20.796875 -26.359375 17.453125 -26.359375 C 14.878906 -26.359375 11.859375 -25.582031 8.390625 -24.03125 L 5.46875 -29.96875 C 9.175781 -31.90625 13.285156 -32.875 17.796875 -32.875 C 22.117188 -32.875 25.429688 -31.929688 27.734375 -30.046875 C 30.046875 -28.160156 31.203125 -25.300781 31.203125 -21.46875 L 31.203125 0 Z M 22.46875 -14.921875 L 19.078125 -14.8125 C 16.515625 -14.726562 14.609375 -14.265625 13.359375 -13.421875 C 12.117188 -12.578125 11.5 -11.289062 11.5 -9.5625 C 11.5 -7.082031 12.921875 -5.84375 15.765625 -5.84375 C 17.796875 -5.84375 19.421875 -6.425781 20.640625 -7.59375 C 21.859375 -8.769531 22.46875 -10.328125 22.46875 -12.265625 Z M 22.46875 -14.921875 "/></g></g></g><g fill="#ffffff" fill-opacity="1"><g transform="translate(241.164837, 220.851314)"><g><path d="M 17.6875 0.578125 C 7.664062 0.578125 2.65625 -4.925781 2.65625 -15.9375 C 2.65625 -21.40625 4.015625 -25.582031 6.734375 -28.46875 C 9.460938 -31.363281 13.375 -32.8125 18.46875 -32.8125 C 22.195312 -32.8125 25.535156 -32.082031 28.484375 -30.625 L 25.90625 -23.828125 C 24.519531 -24.378906 23.226562 -24.832031 22.03125 -25.1875 C 20.84375 -25.539062 19.65625 -25.71875 18.46875 -25.71875 C 13.894531 -25.71875 11.609375 -22.472656 11.609375 -15.984375 C 11.609375 -9.691406 13.894531 -6.546875 18.46875 -6.546875 C 20.15625 -6.546875 21.71875 -6.769531 23.15625 -7.21875 C 24.601562 -7.664062 26.046875 -8.367188 27.484375 -9.328125 L 27.484375 -1.8125 C 26.066406 -0.914062 24.628906 -0.296875 23.171875 0.046875 C 21.722656 0.398438 19.894531 0.578125 17.6875 0.578125 Z M 17.6875 0.578125 "/></g></g></g><g fill="#ffffff" fill-opacity="1"><g transform="translate(271.496256, 220.851314)"><g><path d="M 13.046875 -17.515625 L 16.875 -22.40625 L 25.90625 -32.203125 L 35.8125 -32.203125 L 23.015625 -18.234375 L 36.59375 0 L 26.453125 0 L 17.171875 -13.046875 L 13.390625 -10.03125 L 13.390625 0 L 4.609375 0 L 4.609375 -44.828125 L 13.390625 -44.828125 L 13.390625 -24.828125 L 12.9375 -17.515625 Z M 13.046875 -17.515625 "/></g></g></g><g fill="#ffffff" fill-opacity="1"><g transform="translate(308.078324, 220.851314)"><g><path d="M 17.953125 -26.5625 C 16.085938 -26.5625 14.625 -25.96875 13.5625 -24.78125 C 12.507812 -23.601562 11.90625 -21.929688 11.75 -19.765625 L 24.078125 -19.765625 C 24.046875 -21.929688 23.484375 -23.601562 22.390625 -24.78125 C 21.296875 -25.96875 19.816406 -26.5625 17.953125 -26.5625 Z M 19.1875 0.578125 C 14 0.578125 9.945312 -0.851562 7.03125 -3.71875 C 4.113281 -6.582031 2.65625 -10.632812 2.65625 -15.875 C 2.65625 -21.269531 4.003906 -25.441406 6.703125 -28.390625 C 9.398438 -31.335938 13.128906 -32.8125 17.890625 -32.8125 C 22.441406 -32.8125 25.984375 -31.515625 28.515625 -28.921875 C 31.054688 -26.328125 32.328125 -22.742188 32.328125 -18.171875 L 32.328125 -13.921875 L 11.546875 -13.921875 C 11.648438 -11.421875 12.390625 -9.46875 13.765625 -8.0625 C 15.148438 -6.664062 17.09375 -5.96875 19.59375 -5.96875 C 21.53125 -5.96875 23.363281 -6.164062 25.09375 -6.5625 C 26.820312 -6.96875 28.628906 -7.613281 30.515625 -8.5 L 30.515625 -1.703125 C 28.972656 -0.929688 27.328125 -0.359375 25.578125 0.015625 C 23.828125 0.390625 21.695312 0.578125 19.1875 0.578125 Z M 19.1875 0.578125 "/></g></g></g><g fill="#ffffff" fill-opacity="1"><g transform="translate(342.932104, 220.851314)"><g><path d="M 22.59375 -32.8125 C 23.78125 -32.8125 24.765625 -32.722656 25.546875 -32.546875 L 24.890625 -24.3125 C 24.179688 -24.507812 23.316406 -24.609375 22.296875 -24.609375 C 19.492188 -24.609375 17.304688 -23.882812 15.734375 -22.4375 C 14.171875 -21 13.390625 -18.984375 13.390625 -16.390625 L 13.390625 0 L 4.609375 0 L 4.609375 -32.203125 L 11.265625 -32.203125 L 12.5625 -26.796875 L 13 -26.796875 C 13.988281 -28.597656 15.332031 -30.050781 17.03125 -31.15625 C 18.738281 -32.257812 20.59375 -32.8125 22.59375 -32.8125 Z M 22.59375 -32.8125 "/></g></g></g></svg>